# xmcd
#
# Track frame offsets: 
#        150
#        25392
#        45267
#        66965
#        87722
#        110935
#        129315
#        146325
#        166730
#        184337
#        207660
#
# Disc length: 3134 seconds
#
# Revision: 6
# Processed by: cddbd v1.5.2PL0 Copyright (c) Steve Scherf et al.
# Submitted via: ExactAudioCopy v1.0b3
#
DISCID=a20c3c0b
DTITLE=Sara Evans - Born to Fly
DYEAR=2000
DGENRE=Country
TTITLE0=Born to Fly
TTITLE1=Saints and Angels
TTITLE2=I Could Not Ask for More
TTITLE3=I Keep Looking
TTITLE4=I Learned That from You
TTITLE5=Let's Dance
TTITLE6=Why Should I Care
TTITLE7=Four-Thirty
TTITLE8=Show Me the Way to Your Heart
TTITLE9=You Don't
TTITLE10=Every Little Kiss
EXTD=YEAR: 2000 ID3G: 2
EXTT0=
EXTT1=
EXTT2=
EXTT3=
EXTT4=
EXTT5=
EXTT6=
EXTT7=
EXTT8=
EXTT9=
EXTT10=
PLAYORDER=
